# xmcd
#
# Track frame offsets:
#	150
#	15980
#	31660
#	47245
#	62560
#	76690
#	90255
#	105585
#	119740
#	132460
#	145805
#	158275
#
# Disc length: 2275 seconds
#
# Revision: 1
# Processed by: cddbd v1.5.2PL0 Copyright (c) Steve Scherf et al.
# Submitted via: audiograbber 1.83.01
#
DISCID=8608e10c
DTITLE=LÁZARO DO PIAUÍ - FORRÓ PORRETA
DYEAR=1900
DGENRE=FORRÓ
TTITLE0=FORRÓ PORRETA
TTITLE1=DEIXANDO FALAR
TTITLE2=BONZIN DE DANÇA
TTITLE3=MORRENDO DE SAUDADE
TTITLE4=PASSA LÁ EM CASA
TTITLE5=VAI ACABAR NA CAMA
TTITLE6=FORRÓ DO BOM
TTITLE7=TÁ NA HORA DE ACABAR
TTITLE8=PRA GONZAGÃO
TTITLE9=ENGANO SEU
TTITLE10=PRA VOCÊ, ROSA
TTITLE11=MAU CONTERRÂNEO
EXTD=
EXTT0=
EXTT1=
EXTT2=
EXTT3=
EXTT4=
EXTT5=
EXTT6=
EXTT7=
EXTT8=
EXTT9=
EXTT10=
EXTT11=
PLAYORDER=
